<svg width="7" height="10" viewBox="0 0 7 10" fill="none" xmlns="http://www.w3.org/2000/svg">
<path d="M6.756 6.48C6.756 7.288 6.46 7.924 5.868 8.388C5.276 8.844 4.52 9.072 3.6 9.072C2.872 9.072 2.168 8.872 1.488 8.472C1.152 8.264 0.876 7.972 0.66 7.596C0.444 7.212 0.336 6.776 0.336 6.288L1.848 6.216C1.848 6.648 2.032 6.984 2.4 7.224C2.768 7.464 3.176 7.584 3.624 7.584C4.624 7.584 5.124 7.232 5.124 6.528C5.124 5.952 4.784 5.612 4.104 5.508L2.712 5.364C2.016 5.26 1.464 5.012 1.056 4.62C0.648 4.228 0.444 3.664 0.444 2.928C0.444 2.192 0.736 1.584 1.32 1.104C1.904 0.623999 2.64 0.383999 3.528 0.383999C4.424 0.383999 5.144 0.612 5.688 1.068C6.232 1.516 6.504 2.096 6.504 2.808L5.016 2.88C4.88 2.184 4.412 1.836 3.612 1.836C3.124 1.836 2.74 1.94 2.46 2.148C2.188 2.356 2.052 2.604 2.052 2.892C2.052 3.172 2.152 3.396 2.352 3.564C2.552 3.724 2.8 3.824 3.096 3.864L4.464 4.008C5.992 4.216 6.756 5.04 6.756 6.48Z" fill="#85CCFD"/>
</svg>
