<svg width="35" height="14" viewBox="0 0 35 14" fill="none" xmlns="http://www.w3.org/2000/svg">
<path d="M6.756 6.48C6.756 7.288 6.46 7.924 5.868 8.388C5.276 8.844 4.52 9.072 3.6 9.072C2.872 9.072 2.168 8.872 1.488 8.472C1.152 8.264 0.876 7.972 0.66 7.596C0.444 7.212 0.336 6.776 0.336 6.288L1.848 6.216C1.848 6.648 2.032 6.984 2.4 7.224C2.768 7.464 3.176 7.584 3.624 7.584C4.624 7.584 5.124 7.232 5.124 6.528C5.124 5.952 4.784 5.612 4.104 5.508L2.712 5.364C2.016 5.26 1.464 5.012 1.056 4.62C0.648 4.228 0.444 3.664 0.444 2.928C0.444 2.192 0.736 1.584 1.32 1.104C1.904 0.623999 2.64 0.383999 3.528 0.383999C4.424 0.383999 5.144 0.612 5.688 1.068C6.232 1.516 6.504 2.096 6.504 2.808L5.016 2.88C4.88 2.184 4.412 1.836 3.612 1.836C3.124 1.836 2.74 1.94 2.46 2.148C2.188 2.356 2.052 2.604 2.052 2.892C2.052 3.172 2.152 3.396 2.352 3.564C2.552 3.724 2.8 3.824 3.096 3.864L4.464 4.008C5.992 4.216 6.756 5.04 6.756 6.48Z" fill="#85CCFD"/>
<path d="M22.26 4.332V4.98C22.26 6.412 21.988 7.452 21.444 8.1C20.908 8.748 20.044 9.072 18.852 9.072C17.66 9.072 16.796 8.748 16.26 8.1C15.732 7.452 15.468 6.4 15.468 4.944V4.32C15.468 2.992 15.736 2.004 16.272 1.356C16.816 0.707999 17.672 0.383999 18.84 0.383999C20.016 0.383999 20.88 0.711999 21.432 1.368C21.984 2.024 22.26 3.012 22.26 4.332ZM20.592 4.944V4.5C20.592 3.732 20.496 3.12 20.304 2.664C20.08 2.136 19.6 1.872 18.864 1.872C18.12 1.872 17.636 2.136 17.412 2.664C17.228 3.096 17.136 3.708 17.136 4.5V4.944C17.136 5.976 17.28 6.672 17.568 7.032C17.68 7.184 17.844 7.316 18.06 7.428C18.284 7.532 18.548 7.584 18.852 7.584C19.164 7.584 19.428 7.532 19.644 7.428C19.86 7.324 20.028 7.196 20.148 7.044C20.268 6.892 20.36 6.692 20.424 6.444C20.536 6.052 20.592 5.552 20.592 4.944Z" fill="#FEB1FF"/>
<path d="M14.344 12H12.676V8.544H9.544V12H7.876V3.456H9.544V7.068H12.676V3.456H14.344V12Z" fill="#807EE8"/>
<path d="M29.464 12H27.532L25.864 8.832H24.664V12H22.996V5.292C22.996 4.652 23.144 4.188 23.44 3.9C23.736 3.604 24.232 3.456 24.928 3.456H26.344C27.192 3.456 27.864 3.716 28.36 4.236C28.864 4.748 29.116 5.4 29.116 6.192C29.116 6.768 28.964 7.268 28.66 7.692C28.364 8.108 27.996 8.396 27.556 8.556L29.464 12ZM26.236 7.44C26.588 7.44 26.876 7.32 27.1 7.08C27.332 6.832 27.448 6.528 27.448 6.168C27.448 5.8 27.336 5.504 27.112 5.28C26.896 5.056 26.604 4.944 26.236 4.944H25.408C24.912 4.944 24.664 5.196 24.664 5.7V7.44H26.236Z" fill="#D0E4FF"/>
<path d="M34.552 1.944H32.26V9H30.592V1.944H28.312V0.456H34.552V1.944Z" fill="#85CCFD"/>
</svg>
